# xmcd
#
# Track frame offsets:
#	150
#	9624
#	20679
#	29633
#	40869
#	50700
#	61422
#	69773
#	77227
#	85982
#	94909
#	104722
#	116278
#	127550
#
# Disc length: 1830 seconds
#
# Revision: 1
# Processed by: cddbd v1.4b41PL1 Copyright (c) Steve Scherf et al.
# Submitted via: audiograbber 1.80
#
DISCID=b507240e
DTITLE=Rex Allen - The Arizona Cowboy
DYEAR=1900
DGENRE=
TTITLE0=Cindy
TTITLE1=Sweet Betsy From Pike
TTITLE2=Sleep Little Moses
TTITLE3=The Cowboy's Dream
TTITLE4=Alla En El Rancho Grande
TTITLE5=Softly and Tenderly
TTITLE6=Lonesome Valley
TTITLE7=Hoosen Johnny
TTITLE8=Curtains Of Night
TTITLE9=Rarin' To Go
TTITLE10=Old Joe Clark
TTITLE11=On Top Of Old Smokey
TTITLE12=Feeling Bad
TTITLE13=Prayer Of The Frontier Doctor
EXTD=
EXTT0=
EXTT1=
EXTT2=
EXTT3=
EXTT4=
EXTT5=
EXTT6=
EXTT7=
EXTT8=
EXTT9=
EXTT10=
EXTT11=
EXTT12=
EXTT13=
PLAYORDER=
